<svg width="160" height="32" viewBox="0 0 160 32" fill="none" xmlns="http://www.w3.org/2000/svg">
<mask id="mask0_1565_11167" style="mask-type:luminance" maskUnits="userSpaceOnUse" x="0" y="0" width="169" height="32">
<path d="M169 0H0V32H169V0Z" fill="white"/>
</mask>
<g mask="url(#mask0_1565_11167)">
<path d="M24.0055 0.100098H8.00547C3.64242 0.100098 0.105469 3.63705 0.105469 8.0001V24.0001C0.105469 28.3631 3.64242 31.9001 8.00547 31.9001H24.0055C28.3686 31.9001 31.9055 28.3631 31.9055 24.0001V8.0001C31.9055 3.63705 28.3686 0.100098 24.0055 0.100098Z" fill="white"/>
<path d="M24.0055 0.100098H8.00547C3.64242 0.100098 0.105469 3.63705 0.105469 8.0001V24.0001C0.105469 28.3631 3.64242 31.9001 8.00547 31.9001H24.0055C28.3686 31.9001 31.9055 28.3631 31.9055 24.0001V8.0001C31.9055 3.63705 28.3686 0.100098 24.0055 0.100098Z" fill="url(#paint0_linear_1565_11167)"/>
<path d="M24.0055 0.100098H8.00547C3.64242 0.100098 0.105469 3.63705 0.105469 8.0001V24.0001C0.105469 28.3631 3.64242 31.9001 8.00547 31.9001H24.0055C28.3686 31.9001 31.9055 28.3631 31.9055 24.0001V8.0001C31.9055 3.63705 28.3686 0.100098 24.0055 0.100098Z" stroke="#D0D5DD" stroke-width="0.2"/>
<path d="M15.356 11.1802C19.716 9.45022 24.476 10.8202 26.636 12.9102C27.106 13.3602 27.506 13.8202 27.846 14.2802C28.036 13.2102 28.056 12.1402 27.866 11.1002C27.186 7.32022 23.616 5.18022 20.426 6.29022C17.246 7.39022 16.006 9.53022 16.006 9.53022C16.006 9.53022 14.766 7.39022 11.586 6.29022C8.38592 5.18022 4.82592 7.33022 4.14592 11.1002C3.64592 13.8902 4.59592 16.9302 6.62592 19.6202C7.05592 19.7602 7.49592 19.8702 7.97592 19.9302C10.816 20.3002 11.836 19.5402 13.036 19.0402C13.836 18.7002 14.436 19.0902 14.406 19.3502C14.356 19.7702 12.796 20.4802 13.126 20.6302C14.456 21.2202 16.096 21.2202 17.326 20.1702C18.856 18.8602 19.436 19.7602 19.436 19.7602C19.436 19.7602 18.676 21.7002 16.386 22.6702C14.476 23.4702 12.466 23.6702 10.636 23.4702C12.216 24.5902 14.026 25.5202 16.026 26.1902C21.736 24.2802 25.956 20.1902 27.436 15.9102C26.426 14.9202 25.196 14.3002 23.716 14.0802C20.886 13.6502 19.846 14.3902 18.636 14.8702C17.836 15.1902 17.246 14.8002 17.276 14.5302C17.326 14.1102 18.916 13.4402 18.576 13.2802C17.256 12.6602 15.626 12.6302 14.366 13.6602C12.806 14.9402 12.256 14.0302 12.256 14.0302C12.256 14.0302 13.056 12.1002 15.366 11.1902L15.356 11.1802ZM14.276 16.5102H15.376V15.4102H16.636V16.5102H17.736V17.7702H16.636V18.8702H15.376V17.7702H14.276V16.5102Z" fill="url(#paint1_linear_1565_11167)"/>
<path d="M14.2755 16.5102H15.3755V15.4102H16.6355V16.5102H17.7355V17.7702H16.6455C18.2655 18.5902 21.2455 19.8102 24.8255 20.3502C26.0055 18.9602 26.8855 17.4502 27.4255 15.9102C26.4155 14.9202 25.1855 14.3002 23.7055 14.0802C20.8755 13.6502 19.8355 14.3902 18.6255 14.8702C17.8255 15.1902 17.2355 14.8002 17.2655 14.5302C17.3155 14.1102 18.9055 13.4402 18.5655 13.2802C17.2455 12.6602 15.6155 12.6302 14.3555 13.6602C12.7955 14.9402 12.2455 14.0302 12.2455 14.0302C12.2455 14.0302 13.0455 12.1002 15.3555 11.1802C19.7155 9.45022 24.4755 10.8202 26.6355 12.9102C27.1055 13.3602 27.5055 13.8202 27.8455 14.2802C28.0355 13.2102 28.0555 12.1402 27.8655 11.1002C27.1855 7.32022 23.6155 5.18022 20.4255 6.29022C17.2455 7.39022 16.0055 9.53022 16.0055 9.53022C16.0055 9.53022 14.7655 7.39022 11.5855 6.29022C9.75547 5.66022 7.81547 6.09022 6.35547 7.27022C7.04547 8.74022 7.84547 10.1102 10.1355 12.8702C11.9955 15.1102 14.2855 16.5002 14.2855 16.5002L14.2755 16.5102Z" fill="url(#paint2_linear_1565_11167)"/>
<path opacity="0.31" d="M24.2853 7.65019C21.2753 6.14019 18.1753 8.49019 17.1953 9.73019C18.8953 9.37019 20.3753 9.19019 22.2553 9.58019C25.0353 10.1602 26.0753 11.1702 27.3153 12.6502C27.0953 9.90019 25.3653 8.19019 24.2853 7.65019Z" fill="url(#paint3_linear_1565_11167)"/>
</g>
<path d="M43 23V7.72724H46.229V14.0287H52.7841V7.72724H56.0057V23H52.7841V16.691H46.229V23H43Z" fill="white"/>
<path d="M63.8285 23.2237C62.6502 23.2237 61.636 22.9851 60.7859 22.5078C59.9407 22.0255 59.2894 21.3444 58.832 20.4645C58.3746 19.5795 58.146 18.533 58.146 17.3249C58.146 16.1466 58.3746 15.1125 58.832 14.2226C59.2894 13.3327 59.9332 12.6392 60.7635 12.142C61.5987 11.6449 62.5781 11.3963 63.7017 11.3963C64.4574 11.3963 65.1609 11.5181 65.8121 11.7617C66.4684 12.0003 67.0401 12.3608 67.5273 12.843C68.0195 13.3253 68.4023 13.9318 68.6758 14.6626C68.9492 15.3885 69.0859 16.2386 69.0859 17.213V18.0855H59.4137V16.1168H66.0955C66.0955 15.6594 65.9961 15.2542 65.7972 14.9012C65.5984 14.5483 65.3224 14.2723 64.9695 14.0735C64.6214 13.8696 64.2163 13.7677 63.7539 13.7677C63.2717 13.7677 62.8441 13.8796 62.4712 14.1033C62.1033 14.3221 61.815 14.6179 61.6062 14.9907C61.3974 15.3586 61.2905 15.7688 61.2855 16.2212V18.093C61.2855 18.6598 61.3899 19.1495 61.5987 19.5621C61.8125 19.9748 62.1133 20.2929 62.5011 20.5167C62.8889 20.7404 63.3487 20.8522 63.8807 20.8522C64.2337 20.8522 64.5568 20.8025 64.8501 20.7031C65.1435 20.6037 65.3945 20.4545 65.6033 20.2556C65.8121 20.0568 65.9712 19.8132 66.0806 19.5248L69.0188 19.7187C68.8697 20.4247 68.5639 21.0412 68.1016 21.5681C67.6442 22.0902 67.0526 22.4978 66.3267 22.7912C65.6058 23.0795 64.7731 23.2237 63.8285 23.2237Z" fill="white"/>
<path d="M74.4254 23.2162C73.6946 23.2162 73.0433 23.0895 72.4716 22.8359C71.8999 22.5774 71.4474 22.1971 71.1143 21.6949C70.7862 21.1878 70.6222 20.5564 70.6222 19.8007C70.6222 19.1644 70.739 18.6299 70.9727 18.1974C71.2063 17.7649 71.5245 17.4169 71.9272 17.1534C72.3299 16.8899 72.7873 16.691 73.2994 16.5568C73.8164 16.4226 74.3583 16.3281 74.9251 16.2734C75.5913 16.2038 76.1282 16.1392 76.5359 16.0795C76.9435 16.0149 77.2393 15.9204 77.4233 15.7961C77.6072 15.6718 77.6992 15.4879 77.6992 15.2443V15.1995C77.6992 14.7272 77.5501 14.3618 77.2518 14.1033C76.9585 13.8448 76.5408 13.7155 75.9989 13.7155C75.4272 13.7155 74.9723 13.8423 74.6342 14.0958C74.2962 14.3444 74.0724 14.6576 73.9631 15.0355L71.0249 14.7968C71.174 14.1008 71.4673 13.4993 71.9048 12.9922C72.3423 12.4801 72.9066 12.0873 73.5977 11.8139C74.2937 11.5355 75.0991 11.3963 76.0139 11.3963C76.6502 11.3963 77.2592 11.4708 77.8409 11.62C78.4276 11.7691 78.9471 12.0003 79.3995 12.3135C79.8569 12.6267 80.2173 13.0294 80.4808 13.5216C80.7443 14.0088 80.8761 14.593 80.8761 15.2741V23H77.8633V21.4115H77.7738C77.5898 21.7695 77.3437 22.0852 77.0355 22.3586C76.7273 22.6271 76.3569 22.8384 75.9244 22.9925C75.4918 23.1417 74.9922 23.2162 74.4254 23.2162ZM75.3352 21.0238C75.8026 21.0238 76.2152 20.9318 76.5732 20.7478C76.9311 20.5589 77.212 20.3054 77.4158 19.9872C77.6197 19.669 77.7216 19.3086 77.7216 18.9059V17.6903C77.6222 17.7549 77.4854 17.8146 77.3114 17.8693C77.1424 17.919 76.951 17.9662 76.7372 18.011C76.5234 18.0507 76.3097 18.088 76.0959 18.1228C75.8821 18.1527 75.6882 18.18 75.5142 18.2049C75.1413 18.2596 74.8157 18.3466 74.5373 18.4659C74.2589 18.5852 74.0426 18.7468 73.8885 18.9506C73.7344 19.1495 73.6573 19.398 73.6573 19.6963C73.6573 20.1289 73.8139 20.4595 74.1271 20.6882C74.4453 20.9119 74.848 21.0238 75.3352 21.0238Z" fill="white"/>
<path d="M86.5176 7.72724V23H83.3407V7.72724H86.5176Z" fill="white"/>
<path d="M95.1551 11.5454V13.9318H88.257V11.5454H95.1551ZM89.8231 8.8011H92.9999V19.4801C92.9999 19.7734 93.0447 20.0021 93.1341 20.1662C93.2236 20.3253 93.3479 20.4371 93.507 20.5017C93.6711 20.5664 93.86 20.5987 94.0738 20.5987C94.2229 20.5987 94.3721 20.5863 94.5212 20.5614C94.6704 20.5316 94.7847 20.5092 94.8643 20.4943L95.3639 22.8583C95.2048 22.908 94.9811 22.9652 94.6927 23.0298C94.4044 23.0994 94.0539 23.1417 93.6412 23.1566C92.8756 23.1864 92.2045 23.0845 91.6278 22.8508C91.056 22.6172 90.6111 22.2542 90.2929 21.762C89.9747 21.2699 89.8181 20.6484 89.8231 19.8977V8.8011Z" fill="white"/>
<path d="M100.647 16.3778V23H97.4706V7.72724H100.558V13.5664H100.692C100.951 12.8902 101.368 12.3608 101.945 11.9779C102.522 11.5902 103.245 11.3963 104.115 11.3963C104.911 11.3963 105.604 11.5703 106.196 11.9183C106.792 12.2613 107.255 12.756 107.583 13.4023C107.916 14.0436 108.08 14.8118 108.075 15.7066V23H104.898V16.2734C104.903 15.5674 104.724 15.0181 104.361 14.6253C104.003 14.2326 103.501 14.0362 102.855 14.0362C102.422 14.0362 102.04 14.1282 101.706 14.3121C101.378 14.4961 101.12 14.7645 100.931 15.1175C100.747 15.4655 100.652 15.8856 100.647 16.3778Z" fill="white"/>
<path d="M118.92 12.1196C118.86 11.5181 118.604 11.0507 118.152 10.7177C117.699 10.3846 117.085 10.218 116.31 10.218C115.783 10.218 115.338 10.2926 114.975 10.4417C114.612 10.5859 114.334 10.7873 114.14 11.0458C113.951 11.3043 113.856 11.5976 113.856 11.9257C113.846 12.1992 113.904 12.4378 114.028 12.6417C114.157 12.8455 114.334 13.022 114.557 13.1711C114.781 13.3153 115.04 13.4421 115.333 13.5515C115.626 13.6559 115.939 13.7454 116.273 13.8199L117.645 14.148C118.311 14.2972 118.922 14.4961 119.479 14.7446C120.036 14.9932 120.518 15.299 120.926 15.6619C121.334 16.0248 121.649 16.4524 121.873 16.9446C122.102 17.4368 122.219 18.001 122.224 18.6374C122.219 19.5721 121.98 20.3824 121.508 21.0685C121.04 21.7496 120.364 22.2791 119.479 22.6569C118.599 23.0298 117.538 23.2162 116.295 23.2162C115.062 23.2162 113.988 23.0273 113.073 22.6495C112.164 22.2716 111.453 21.7123 110.941 20.9716C110.433 20.2258 110.167 19.3036 110.143 18.2049H113.267C113.302 18.7169 113.449 19.1445 113.707 19.4875C113.971 19.8256 114.321 20.0816 114.759 20.2556C115.201 20.4247 115.701 20.5092 116.258 20.5092C116.805 20.5092 117.279 20.4297 117.682 20.2706C118.09 20.1115 118.405 19.8902 118.629 19.6069C118.853 19.3235 118.965 18.9978 118.965 18.6299C118.965 18.2869 118.863 17.9985 118.659 17.7649C118.46 17.5312 118.167 17.3324 117.779 17.1683C117.396 17.0042 116.926 16.8551 116.369 16.7208L114.706 16.3032C113.419 15.99 112.402 15.5003 111.656 14.8341C110.911 14.1679 110.54 13.2706 110.545 12.142C110.54 11.2173 110.786 10.4094 111.284 9.71836C111.786 9.02731 112.474 8.48789 113.349 8.10011C114.224 7.71232 115.219 7.51843 116.332 7.51843C117.466 7.51843 118.455 7.71232 119.3 8.10011C120.15 8.48789 120.812 9.02731 121.284 9.71836C121.756 10.4094 122 11.2098 122.015 12.1196H118.92Z" fill="white"/>
<path d="M126.297 27.2954C125.894 27.2954 125.517 27.2631 125.164 27.1985C124.816 27.1388 124.527 27.0618 124.299 26.9673L125.014 24.5958C125.387 24.7102 125.723 24.7723 126.021 24.7823C126.324 24.7922 126.585 24.7226 126.804 24.5735C127.028 24.4243 127.209 24.1708 127.349 23.8128L127.535 23.3281L123.426 11.5454H126.767L129.138 19.9574H129.258L131.652 11.5454H135.015L130.563 24.2379C130.349 24.8544 130.058 25.3913 129.69 25.8487C129.327 26.311 128.867 26.6665 128.311 26.9151C127.754 27.1686 127.083 27.2954 126.297 27.2954Z" fill="white"/>
<path d="M139.817 16.3778V23H136.641V11.5454H139.668V13.5664H139.802C140.056 12.9002 140.481 12.3732 141.078 11.9854C141.674 11.5927 142.398 11.3963 143.248 11.3963C144.043 11.3963 144.737 11.5703 145.328 11.9183C145.92 12.2663 146.38 12.7635 146.708 13.4098C147.036 14.0511 147.2 14.8167 147.2 15.7066V23H144.023V16.2734C144.028 15.5724 143.849 15.0255 143.486 14.6328C143.123 14.2351 142.624 14.0362 141.987 14.0362C141.56 14.0362 141.182 14.1282 140.854 14.3121C140.531 14.4961 140.277 14.7645 140.093 15.1175C139.914 15.4655 139.822 15.8856 139.817 16.3778Z" fill="white"/>
<path d="M154.879 23.2237C153.706 23.2237 152.697 22.9751 151.852 22.478C151.012 21.9758 150.365 21.2798 149.913 20.3899C149.465 19.5 149.242 18.4758 149.242 17.3174C149.242 16.1441 149.468 15.115 149.92 14.2301C150.378 13.3402 151.026 12.6466 151.867 12.1495C152.707 11.6473 153.706 11.3963 154.865 11.3963C155.864 11.3963 156.739 11.5777 157.49 11.9407C158.24 12.3036 158.834 12.8132 159.272 13.4694C159.709 14.1257 159.95 14.8963 159.995 15.7812H156.997C156.913 15.2095 156.689 14.7496 156.326 14.4016C155.968 14.0486 155.498 13.8721 154.917 13.8721C154.425 13.8721 153.994 14.0064 153.627 14.2748C153.264 14.5383 152.98 14.9236 152.776 15.4307C152.573 15.9378 152.471 16.5518 152.471 17.2727C152.471 18.0035 152.57 18.625 152.769 19.137C152.973 19.6491 153.259 20.0394 153.627 20.3079C153.994 20.5763 154.425 20.7105 154.917 20.7105C155.28 20.7105 155.605 20.636 155.894 20.4868C156.187 20.3377 156.428 20.1214 156.617 19.838C156.811 19.5497 156.938 19.2042 156.997 18.8015H159.995C159.945 19.6765 159.707 20.4471 159.279 21.1132C158.857 21.7745 158.273 22.2915 157.527 22.6644C156.781 23.0373 155.899 23.2237 154.879 23.2237Z" fill="white"/>
<defs>
<linearGradient id="paint0_linear_1565_11167" x1="16.0055" y1="9.73075e-05" x2="16.0055" y2="32.0001" gradientUnits="userSpaceOnUse">
<stop stop-color="white"/>
<stop offset="1" stop-color="#D0D5DD"/>
</linearGradient>
<linearGradient id="paint1_linear_1565_11167" x1="7.20592" y1="22.2102" x2="24.836" y2="4.58022" gradientUnits="userSpaceOnUse">
<stop stop-color="#0076C1"/>
<stop offset="0.07" stop-color="#0B82C6"/>
<stop offset="0.28" stop-color="#269ED3"/>
<stop offset="0.45" stop-color="#36AFDA"/>
<stop offset="0.59" stop-color="#3CB5DD"/>
</linearGradient>
<linearGradient id="paint2_linear_1565_11167" x1="7.14547" y1="22.2502" x2="24.8355" y2="4.56022" gradientUnits="userSpaceOnUse">
<stop stop-color="#00A482"/>
<stop offset="1" stop-color="#79DD83"/>
</linearGradient>
<linearGradient id="paint3_linear_1565_11167" x1="21.8653" y1="11.5102" x2="25.5353" y2="8.11019" gradientUnits="userSpaceOnUse">
<stop stop-color="#00A482"/>
<stop offset="1" stop-color="#79DD83"/>
</linearGradient>
</defs>
</svg>
